<svg xmlns="http://www.w3.org/2000/svg" viewBox="0 0 64 64">
  <defs>
    <linearGradient id="bg" x1="0%" y1="0%" x2="100%" y2="100%">
      <stop offset="0%" style="stop-color:#7c4dff"/>
      <stop offset="100%" style="stop-color:#b388ff"/>
    </linearGradient>
  </defs>
  <rect width="64" height="64" rx="14" fill="url(#bg)"/>
  <!-- Gear outer -->
  <g transform="translate(32,32)" fill="none" stroke="#fff" stroke-width="2.5" stroke-linecap="round" stroke-linejoin="round">
    <!-- Gear teeth path -->
    <path d="M-2.5-14.5h5l1 3.5 3-1.2 3.5-3.5 3.5 3.5-1.8 3.8 2.8 1.8 3.5-1v5l-3.5 1-1.2 3 3.5 3.5-3.5 3.5-3.8-1.8-1.8 2.8 1 3.5h-5l-1-3.5-3 1.2-3.5 3.5-3.5-3.5 1.8-3.8-2.8-1.8-3.5 1v-5l3.5-1 1.2-3-3.5-3.5 3.5-3.5 3.8 1.8 1.8-2.8z"/>
    <!-- Center circle -->
    <circle cx="0" cy="0" r="5"/>
  </g>
  <!-- Code brackets -->
  <g fill="none" stroke="#fff" stroke-width="2.2" stroke-linecap="round" opacity="0.85">
    <polyline points="20,28 16,32 20,36"/>
    <polyline points="44,28 48,32 44,36"/>
    <line x1="35" y1="25" x2="29" y2="39"/>
  </g>
</svg>
